# xmcd
#
# Track frame offsets:
#	150
#	11888
#	25128
#	38389
#	51453
#	58743
#	71735
#	83706
#	94800
#	107697
#	119534
#	132292
#
# Disc length: 1879 seconds
#
# Revision: 0
# Processed by: cddbd v1.5.2PL0 Copyright (c) Steve Scherf et al.
# Submitted via: dBpowerAMP V4.0
#
DISCID=a207550c
DTITLE=Buddy Davis - Never Ending Love
DYEAR=2004
DGENRE=Gospel
TTITLE0=Fall's A Beautiful Time of Year
TTITLE1=Slowly
TTITLE2=Never-Ending Love
TTITLE3=Bloackpowder Rifle
TTITLE4=Harvest
TTITLE5=Your're My Best Friend
TTITLE6=It Must Be Love
TTITLE7=At The Cross
TTITLE8=Wildside
TTITLE9=Mom
TTITLE10=Just As I Am
TTITLE11=A Little Bit of Kindness
EXTD=
EXTT0=
EXTT1=
EXTT2=
EXTT3=
EXTT4=
EXTT5=
EXTT6=
EXTT7=
EXTT8=
EXTT9=
EXTT10=
EXTT11=
PLAYORDER=
